<?xml version="1.0" encoding="utf-8"?>
<!-- Generator: Adobe Illustrator 15.1.0, SVG Export Plug-In . SVG Version: 6.00 Build 0)  -->
<!DOCTYPE svg PUBLIC "-//W3C//DTD SVG 1.1//EN" "http://www.w3.org/Graphics/SVG/1.1/DTD/svg11.dtd">
<svg version="1.1" id="Layer_2" xmlns="http://www.w3.org/2000/svg" xmlns:xlink="http://www.w3.org/1999/xlink" x="0px" y="0px"
	 width="800px" height="600px" viewBox="0 0 800 600" enable-background="new 0 0 800 600" xml:space="preserve">
<path d="M95.065,173.583c-8.38,0.248-26.546,21.756-18.225,54.255c6.853,26.767,17.586,60.921,25.896,155.23
	c8.31,94.308,3.351,113.217,16.205,112.469c12.854-0.746,26.391-3.355,25.986-29.466
	C144.523,439.962,114.873,172.997,95.065,173.583z"/>
<path d="M57.78,391.559c-2.755,6.703,12.384,22.293,31.733,14.363c15.938-6.533,38.389-16.486,95.355-25.842
	c56.966-9.355,68.728-5.516,67.614-16.586c-1.113-11.072-3.394-22.687-19.262-21.732C217.354,342.717,64.899,374.235,57.78,391.559z
	"/>
<path d="M218.949,116.121c-7.217-4.267-31.866-0.767-23.546,31.73c6.854,26.768,17.587,60.922,25.896,155.229
	c8.31,94.311,1.515,203.057,14.37,202.31c12.854-0.748,26.632-5.687,26.226-31.797c-0.172-11.116-1.44-85.503-8.867-162.925
	C243.012,206.256,230.535,122.971,218.949,116.121z"/>
<path d="M310.029,358.855c31.593-20.304,74.27-73.036,60.234-96.612c-14.036-23.576-50.276-7.203-71.378,32.735
	c-21.102,39.938-33.194,97.438-6.415,126.396c26.78,28.961,87.814,6.615,132.371-55.982c49.756-69.906,75.733-140.38,72.688-221.443
	c-3.047-81.062-25.366-93.502-45.014-90.533c-19.839,2.998-62.705,67.815-64.029,206.296
	c-1.285,134.131,21.754,187.476,58.711,187.094c36.958-0.383,111.428-51.654,144.973-168.401
	c33.665-117.161,26.024-213.35-4.414-215.907c-41.777-3.51-77.243,111.931-86.359,204.57
	c-8.983,91.295-9.916,188.378,37.436,185.408c35.451-2.226,75.01-48.58,91.064-91.413c10.876-29.018,10.956-57.75-8.278-64.935
	c-47.628-17.79-74.286,176.337,21.409,149.753c49.508-13.752,49.415-76.09,29.209-109.531s-45.974-59.789-56.226-49.068
	c-10.253,10.722,3.817,49.148,68.663,42.558c51.914-5.276,88.777-21.567,80.871-39.14c-7.904-17.572-15.064-16.396-30.372-2.997
	c-15.309,13.399-80.227,30.442-96.311,22.148c-16.084-8.295,31.026,18.845,34.842,61.79c2.498,28.108-7.169,53.586-29.475,60.482
	c-43.063,13.317-48.301-59.678-42.548-90.078c5.755-30.4,25.925-28.473,18.967,3.379c-6.932,31.732-34.635,81.738-75.915,90.992
	c-41.278,9.254-24.771-145.07-12.104-200.368c12.669-55.296,34.688-120.496,48.504-120.523c8.188-0.017,14.974,22.457,14.641,57.929
	c-0.342,36.524-12.25,85.57-33.939,139.289c-28.232,69.937-77.816,120.438-110.372,119.675
	c-32.555-0.768-37.689-123.736-35.617-189.956c2.074-66.222,27.119-151.436,50.868-148.923
	c15.094,1.596,22.825,102.572-8.87,179.699c-17.811,43.34-55.982,125.568-109.185,140.383
	c-44.717,12.449-45.243-54.146-31.849-92.35c13.397-38.203,43.446-62.099,38.17-38.875c-5.275,23.225-41.345,54.994-58.791,70.029
	C278.742,367.462,288.107,372.945,310.029,358.855z"/>
<path d="M620.518,500.516c-81.567-12.507-163.737-20.446-246.135-24.643c-23.093-1.176-46.458-2.366-69.562-2.441
	c-3.911-0.012-5.604,6.029-1.839,7.687c18.486,8.146,39.152,9.181,59.005,11.06c20.69,1.959,41.35,4.121,62.059,5.863
	c41.702,3.506,83.352,6.361,125.127,8.789c23.416,1.359,46.813,2.971,70.229,4.305C625.411,511.477,626.527,501.436,620.518,500.516
	z"/>
<path d="M712.985,437.963c-1.572-2.902-4.36-4.327-7.27-5.472c-4.629-1.821-9.583-1.692-13.638,1.507
	c-1.328,1.051-2.369,2.277-3.136,3.611c-0.253,0.18-0.507,0.357-0.746,0.549c-5.403,3.521-6.061,11.629-2.237,16.474
	c1.958,2.479,4.434,3.871,7.567,4.259c2.661,0.33,4.819-0.209,6.862-1.35c0.227-0.088,0.452-0.18,0.679-0.263
	c-0.029,0.024-0.061,0.048-0.09,0.073c0.054-0.037,0.113-0.064,0.169-0.1c1.578-0.568,3.198-1.041,4.81-1.486
	c4.914-1.352,9.025-6.512,8.74-11.727C714.579,441.897,714.008,439.85,712.985,437.963z"/>
</svg>
