<svg xmlns="http://www.w3.org/2000/svg" width="20" height="20" viewBox="0 0 20 20">
  <defs>
    <style>
      .cls-1 {
        fill: #282828;
        stroke: #9d9d9d;
        stroke-width: 1px;
        fill-rule: evenodd;
      }
    </style>
  </defs>
  <path id="Ellipse_1_copy_3" data-name="Ellipse 1 copy 3" class="cls-1" d="M20,39a1,1,0,1,1-1,1A1,1,0,0,1,20,39Zm0-20a1,1,0,1,1-1,1A1,1,0,0,1,20,19ZM40,39a1,1,0,1,1-1,1A1,1,0,0,1,40,39Zm0-20a1,1,0,1,1-1,1A1,1,0,0,1,40,19Z" transform="translate(-20 -20)"/>
</svg>
